<svg xmlns="http://www.w3.org/2000/svg" viewBox="0 0 180 18">
  <!-- Brick 1: Gold/Yellow -->
  <rect x="4"  y="1" width="4" height="5" rx="1" fill="#ffe550"/>
  <rect x="12" y="1" width="4" height="5" rx="1" fill="#ffe550"/>
  <rect x="20" y="1" width="4" height="5" rx="1" fill="#ffe550"/>
  <rect x="1"  y="6" width="28" height="12" fill="#ffd700"/>
  <rect x="1"  y="6" width="28" height="3"  fill="#ffee22"/>
  <rect x="1"  y="15" width="28" height="3"  fill="#cc9900"/>

  <!-- Brick 2: Dark Green -->
  <rect x="34" y="1" width="4" height="5" rx="1" fill="#44cc44"/>
  <rect x="42" y="1" width="4" height="5" rx="1" fill="#44cc44"/>
  <rect x="50" y="1" width="4" height="5" rx="1" fill="#44cc44"/>
  <rect x="31" y="6" width="28" height="12" fill="#1e8a1e"/>
  <rect x="31" y="6" width="28" height="3"  fill="#229922"/>
  <rect x="31" y="15" width="28" height="3"  fill="#115511"/>

  <!-- Brick 3: Hot Pink -->
  <rect x="64" y="1" width="4" height="5" rx="1" fill="#ff77bb"/>
  <rect x="72" y="1" width="4" height="5" rx="1" fill="#ff77bb"/>
  <rect x="80" y="1" width="4" height="5" rx="1" fill="#ff77bb"/>
  <rect x="61" y="6" width="28" height="12" fill="#dd4499"/>
  <rect x="61" y="6" width="28" height="3"  fill="#ee55aa"/>
  <rect x="61" y="15" width="28" height="3"  fill="#991166"/>

  <!-- Brick 4: Sky Blue / Cyan -->
  <rect x="94"  y="1" width="4" height="5" rx="1" fill="#55ddff"/>
  <rect x="102" y="1" width="4" height="5" rx="1" fill="#55ddff"/>
  <rect x="110" y="1" width="4" height="5" rx="1" fill="#55ddff"/>
  <rect x="91"  y="6" width="28" height="12" fill="#00aabb"/>
  <rect x="91"  y="6" width="28" height="3"  fill="#11ccdd"/>
  <rect x="91"  y="15" width="28" height="3"  fill="#007788"/>

  <!-- Brick 5: USC Crimson (darker red) -->
  <rect x="124" y="1" width="4" height="5" rx="1" fill="#dd2244"/>
  <rect x="132" y="1" width="4" height="5" rx="1" fill="#dd2244"/>
  <rect x="140" y="1" width="4" height="5" rx="1" fill="#dd2244"/>
  <rect x="121" y="6" width="28" height="12" fill="#990022"/>
  <rect x="121" y="6" width="28" height="3"  fill="#bb0033"/>
  <rect x="121" y="15" width="28" height="3"  fill="#660011"/>

  <!-- Brick 6: Slate / Dark Blue-Gray -->
  <rect x="154" y="1" width="4" height="5" rx="1" fill="#7799bb"/>
  <rect x="162" y="1" width="4" height="5" rx="1" fill="#7799bb"/>
  <rect x="170" y="1" width="4" height="5" rx="1" fill="#7799bb"/>
  <rect x="151" y="6" width="28" height="12" fill="#445566"/>
  <rect x="151" y="6" width="28" height="3"  fill="#556677"/>
  <rect x="151" y="15" width="28" height="3"  fill="#223344"/>
</svg>
